<svg xmlns="http://www.w3.org/2000/svg" xmlns:xlink="http://www.w3.org/1999/xlink" viewBox="0 0 67.27 98.04"><defs><style>.cls-1{fill:#eb9d45;}.cls-2{fill:#fff;}.cls-3{isolation:isolate;}.cls-4{fill:#e4783a;}.cls-5{fill:#ccc;}.cls-31,.cls-5{mix-blend-mode:multiply;}.cls-6{fill:#c36935;}.cls-7{fill:#e0e0df;}.cls-8{fill:#da753b;}.cls-9{fill:none;}.cls-10{fill:#e5e5e4;}.cls-11{fill:#bc2621;}.cls-12{fill:#f7f3eb;}.cls-13{fill:#ececeb;}.cls-14{fill:#a79f68;}.cls-15{fill:#b0a76d;}.cls-16{fill:#d9d9d8;}.cls-17{fill:#d9ecef;}.cls-18{fill:#616060;}.cls-19{fill:#a0b8bd;}.cls-20{fill:#eaf4f5;}.cls-21{fill:#cc241c;}.cls-22{fill:#fffcf3;}.cls-23{fill:#df9645;}.cls-24{fill:#231815;}.cls-25{fill:#f4f4f5;}.cls-26{clip-path:url(#clip-path);}.cls-27{clip-path:url(#clip-path-2);}.cls-28{fill:#aac83e;}.cls-29{clip-path:url(#clip-path-3);}.cls-30{clip-path:url(#clip-path-4);}.cls-31{fill:#bcbcbb;}</style><clipPath id="clip-path" transform="translate(-16.66 -1.59)"><path class="cls-1" d="M63.94,54.51a5.29,5.29,0,0,0-1.66-4,5.63,5.63,0,0,0-8,.09,5.17,5.17,0,0,0-1.63,3.92Z"/></clipPath><clipPath id="clip-path-2" transform="translate(-16.66 -1.59)"><path class="cls-2" d="M52.67,55.59a5.29,5.29,0,0,0,1.66,4,5.63,5.63,0,0,0,8-.08,5.17,5.17,0,0,0,1.63-3.92Z"/></clipPath><clipPath id="clip-path-3" transform="translate(-16.66 -1.59)"><path class="cls-1" d="M36.52,54.51a5.29,5.29,0,0,1,1.66-4,5.63,5.63,0,0,1,8,.09,5.17,5.17,0,0,1,1.63,3.92Z"/></clipPath><clipPath id="clip-path-4" transform="translate(-16.66 -1.59)"><path class="cls-2" d="M47.79,55.59a5.29,5.29,0,0,1-1.66,4,5.63,5.63,0,0,1-8-.08,5.18,5.18,0,0,1-1.63-3.92Z"/></clipPath></defs><title>fenneclab_min</title><g class="cls-3"><g id="レイヤー_1" data-name="レイヤー 1"><ellipse class="cls-4" cx="33.42" cy="43.51" rx="0.3" ry="15.42"/><ellipse class="cls-2" cx="33.42" cy="65.9" rx="0.3" ry="6.95"/><ellipse class="cls-1" cx="33.42" cy="74.48" rx="0.3" ry="1.63"/><ellipse class="cls-5" cx="33.42" cy="74.48" rx="0.3" ry="1.63"/><ellipse class="cls-1" cx="33.42" cy="82.92" rx="0.3" ry="6.81"/><ellipse class="cls-4" cx="33.42" cy="89.99" rx="0.3" ry="0.26"/><path class="cls-6" d="M68.87,59.42a23.53,23.53,0,0,1-2.71,1.19,25.63,25.63,0,0,1-8.78,1.53,24.49,24.49,0,0,1-14-4.22,22.08,22.08,0,0,0-6.77,3.89c-0.37.32-.74,0.64-1.08,1a15.59,15.59,0,0,0-4.89,11.08c0,9.65,9.59,17.48,21.46,17.48,0.53,0,1,0,1.5-.05l-0.07-.8c-0.46.06-1.52,0.1-1.52,0.1V68.67a9.83,9.83,0,0,1,2.64.35,11.45,11.45,0,0,1,5.67,3.52l1.92,4.4A11.8,11.8,0,0,0,66,76a21.49,21.49,0,0,0,7.42-4.72,16.85,16.85,0,0,0,3.7-5.41,7.81,7.81,0,0,1-.82,0A7.53,7.53,0,0,1,68.87,59.42Z" transform="translate(-16.66 -1.59)"/><path class="cls-7" d="M78.3,60.2a14.73,14.73,0,0,0-2-7.3,17.71,17.71,0,0,1-2.09,2.59,20.72,20.72,0,0,1-5.37,3.92,7.52,7.52,0,0,0,7.45,6.5,7.74,7.74,0,0,0,.81,0,14.61,14.61,0,0,0,1.06-3.94A14.37,14.37,0,0,0,78.3,60.2Z" transform="translate(-16.66 -1.59)"/><polygon class="cls-8" points="35.26 93.41 39.08 93.41 39.86 85.41 34.48 85.41 35.26 93.41"/><path class="cls-9" d="M63.08,98.77a1.76,1.76,0,0,0,1-.49A1.76,1.76,0,0,1,63.08,98.77Z" transform="translate(-16.66 -1.59)"/><path class="cls-9" d="M60.63,98.82c0,0.13-.06.26-0.1,0.38,0-.12.08-0.25,0.11-0.38v0h0v0Z" transform="translate(-16.66 -1.59)"/><path class="cls-9" d="M62.95,98.77a1.76,1.76,0,0,0,1-.49A1.76,1.76,0,0,1,62.95,98.77Z" transform="translate(-16.66 -1.59)"/><path class="cls-10" d="M56.13,94.43s0,0.29,0,.66a4.27,4.27,0,0,1-.2,1.42,7.84,7.84,0,0,1-3.07.11l-0.28-.07-0.28-.1a1.59,1.59,0,0,1-.6-0.41l0,0-0.21-.25-0.18-.23a4,4,0,0,1-.64-1.11l0.08-.05,0.52,0.12,0.31,0.08a5.83,5.83,0,0,0,1.93.35,6.79,6.79,0,0,0,1.76-.3h0.07l0.17,0A6.38,6.38,0,0,0,56.13,94.43Z" transform="translate(-16.66 -1.59)"/><path class="cls-11" d="M60.74,98.24H50.47V94.66a0.37,0.37,0,0,1,.43-0.33h0a2.62,2.62,0,0,1,.73.37,3.83,3.83,0,0,0,2,.66,3,3,0,0,0,1.73-.63l0.14-.11a6.12,6.12,0,0,0,.93-0.92l0.06,0a0.26,0.26,0,0,1,.28,0c0.27,0.18.53,0.38,0.79,0.57l0.69,0.51,0.16,0.11L59,95.27a9.43,9.43,0,0,0,.81.5l0.3,0.15a5.62,5.62,0,0,0,.69.28A11.32,11.32,0,0,1,60.74,98.24Z" transform="translate(-16.66 -1.59)"/><polygon class="cls-12" points="42.66 97.19 33.9 97.19 33.86 96.94 34.65 96.97 38.04 97.06 42.66 97.19"/><path class="cls-10" d="M60.52,99.22c0,0.14-.09.28-0.15,0.41H50.71l0-.21,0-.2h9.88Z" transform="translate(-16.66 -1.59)"/><path class="cls-13" d="M60.74,98.24c0,0.19-.06.37-0.1,0.55H59.32l-4.62-.13-3.39-.1-0.79,0-0.05-.3H60.74Z" transform="translate(-16.66 -1.59)"/><path class="cls-14" d="M60.63,98.82l-0.05.2-0.05.18v0H50.64V99.16l0-.22,0-.15h8.76Z" transform="translate(-16.66 -1.59)"/><path class="cls-15" d="M59.33,98.79l1.3,0v0H59.33Z" transform="translate(-16.66 -1.59)"/><path class="cls-16" d="M60.74,98.24a11.32,11.32,0,0,0,.1-2,4.7,4.7,0,0,0,1.49.25,1.52,1.52,0,0,1,.74.18h0a1.57,1.57,0,0,1,.58.58,2.3,2.3,0,0,1,.32,1H60.74Z" transform="translate(-16.66 -1.59)"/><path class="cls-10" d="M64,98.24v1.4h-3.6c0.06-.13.1-0.27,0.15-0.41h3.41V98.79h-1A1.54,1.54,0,0,0,64,98.24Z" transform="translate(-16.66 -1.59)"/><path class="cls-13" d="M60.64,98.79h2.27A1.54,1.54,0,0,0,64,98.24H60.74C60.71,98.42,60.68,98.61,60.64,98.79Z" transform="translate(-16.66 -1.59)"/><path class="cls-14" d="M64,98.79v0.44H60.52c0-.13.08-0.27,0.11-0.4v0H64Z" transform="translate(-16.66 -1.59)"/><circle class="cls-17" cx="40.38" cy="93.27" r="0.45"/><circle class="cls-18" cx="40.38" cy="93.27" r="0.29"/><circle class="cls-17" cx="41.46" cy="94.07" r="0.45"/><circle class="cls-18" cx="41.46" cy="94.07" r="0.3"/><circle class="cls-17" cx="42.69" cy="94.75" r="0.45"/><circle class="cls-18" cx="42.69" cy="94.75" r="0.29"/><circle class="cls-17" cx="36.84" cy="96.08" r="0.31"/><circle class="cls-18" cx="36.84" cy="96.08" r="0.2"/><circle class="cls-19" cx="35.29" cy="94.94" r="1.04"/><circle class="cls-20" cx="35.29" cy="94.94" r="0.75"/><polygon class="cls-19" points="35.44 94.39 35 94.4 35.19 94.73 34.96 94.72 35.63 95.5 35.35 94.91 35.54 94.9 35.44 94.39"/><polygon class="cls-4" points="31.17 93.41 27.36 93.41 26.57 85.41 31.96 85.41 31.17 93.41"/><path class="cls-5" d="M51.48,91l0.15,1.38a11.15,11.15,0,0,0,4.62-1.93L56.41,89A11.13,11.13,0,0,1,51.48,91Z" transform="translate(-16.66 -1.59)"/><path class="cls-5" d="M43.36,89l0.15,1.49a11.13,11.13,0,0,0,4.63,1.92l0.15-1.37A11.09,11.09,0,0,1,43.36,89Z" transform="translate(-16.66 -1.59)"/><path class="cls-9" d="M36.68,98.77a1.76,1.76,0,0,1-1-.49A1.76,1.76,0,0,0,36.68,98.77Z" transform="translate(-16.66 -1.59)"/><path class="cls-9" d="M39.13,98.82c0,0.13.07,0.26,0.1,0.38,0-.12-0.08-0.25-0.11-0.38v0h0v0Z" transform="translate(-16.66 -1.59)"/><path class="cls-9" d="M36.81,98.77a1.76,1.76,0,0,1-1-.49A1.76,1.76,0,0,0,36.81,98.77Z" transform="translate(-16.66 -1.59)"/><path class="cls-13" d="M43.63,94.43s0,0.29,0,.66a4.32,4.32,0,0,0,.2,1.42,7.84,7.84,0,0,0,3.08.11l0.28-.07,0.28-.1a1.58,1.58,0,0,0,.6-0.41l0,0,0.21-.25,0.18-.23a4,4,0,0,0,.64-1.11l-0.08-.05-0.52.12-0.31.08a5.83,5.83,0,0,1-1.93.35,6.79,6.79,0,0,1-1.76-.3H44.49l-0.17,0A6.45,6.45,0,0,1,43.63,94.43Z" transform="translate(-16.66 -1.59)"/><path class="cls-21" d="M39,98.24H49.29V94.66a0.37,0.37,0,0,0-.43-0.33h0a2.62,2.62,0,0,0-.73.37,3.83,3.83,0,0,1-2,.66,3,3,0,0,1-1.73-.63l-0.14-.11a6.24,6.24,0,0,1-.93-0.92l-0.06,0a0.26,0.26,0,0,0-.28,0c-0.27.18-.53,0.38-0.79,0.57l-0.69.51-0.16.11-0.56.4c-0.26.18-.53,0.35-0.81,0.5l-0.3.15a5.7,5.7,0,0,1-.69.28A11.31,11.31,0,0,0,39,98.24Z" transform="translate(-16.66 -1.59)"/><polygon class="cls-22" points="23.77 97.19 32.53 97.19 32.57 96.94 31.79 96.97 28.39 97.06 23.77 97.19"/><path class="cls-13" d="M39.24,99.22a4.17,4.17,0,0,0,.15.41h9.66l0-.21,0-.2H39.24Z" transform="translate(-16.66 -1.59)"/><path class="cls-13" d="M39,98.24c0,0.19.06,0.37,0.1,0.55h1.31l4.62-.13,3.39-.1,0.79,0,0.05-.3H39Z" transform="translate(-16.66 -1.59)"/><path class="cls-15" d="M39.13,98.82L39.18,99l0.05,0.18v0h9.88V99.16l0-.22,0-.15H40.44Z" transform="translate(-16.66 -1.59)"/><path class="cls-15" d="M40.43,98.79l-1.3,0v0h1.31Z" transform="translate(-16.66 -1.59)"/><path class="cls-7" d="M39,98.24a11.31,11.31,0,0,1-.1-2,4.7,4.7,0,0,1-1.49.25,1.51,1.51,0,0,0-.74.18h0a1.59,1.59,0,0,0-.58.58,2.29,2.29,0,0,0-.32,1H39Z" transform="translate(-16.66 -1.59)"/><path class="cls-13" d="M35.79,98.24v1.4h3.6c-0.05-.13-0.1-0.27-0.15-0.41H35.83V98.79h1A1.54,1.54,0,0,1,35.79,98.24Z" transform="translate(-16.66 -1.59)"/><path class="cls-13" d="M39.13,98.79H36.86a1.54,1.54,0,0,1-1.06-.55H39C39.05,98.42,39.09,98.61,39.13,98.79Z" transform="translate(-16.66 -1.59)"/><path class="cls-15" d="M35.79,98.79v0.44h3.45c0-.13-0.08-0.27-0.11-0.4v0H35.79Z" transform="translate(-16.66 -1.59)"/><circle class="cls-17" cx="26.06" cy="93.27" r="0.45"/><circle class="cls-18" cx="26.06" cy="93.27" r="0.29"/><circle class="cls-17" cx="24.98" cy="94.07" r="0.45"/><circle class="cls-18" cx="24.98" cy="94.07" r="0.29"/><circle class="cls-17" cx="23.74" cy="94.75" r="0.45"/><circle class="cls-18" cx="23.74" cy="94.75" r="0.29"/><circle class="cls-17" cx="29.59" cy="96.08" r="0.31"/><circle class="cls-18" cx="29.59" cy="96.08" r="0.2"/><circle class="cls-19" cx="31.14" cy="94.94" r="1.04"/><circle class="cls-20" cx="31.14" cy="94.94" r="0.75"/><polygon class="cls-19" points="30.99 94.39 31.43 94.4 31.25 94.73 31.48 94.72 30.8 95.5 31.08 94.91 30.9 94.9 30.99 94.39"/><path class="cls-8" d="M49.95,90h0Z" transform="translate(-16.66 -1.59)"/><path class="cls-4" d="M49.72,60.54H50a21.47,21.47,0,0,0-2.78.5,12.71,12.71,0,0,0-6.34,5c-0.47.19-.93,0.39-1.39,0.63a17,17,0,0,0-8.81,11.5l3.59,0.62A17.28,17.28,0,0,1,38,74.13a18.42,18.42,0,0,0,4.12,14c2,2.24,3.83,3.67,7.83,3.73h0V60.57A1.33,1.33,0,0,0,49.72,60.54Z" transform="translate(-16.66 -1.59)"/><path class="cls-7" d="M30.41,79.84l-0.25,0a1.3,1.3,0,1,0,0,2.59,1.28,1.28,0,0,0,.78-0.27,1.29,1.29,0,0,0,2.48,0,1.28,1.28,0,0,0,.78.27,1.3,1.3,0,1,0-.44-2.51c0.15-.37.33-0.72,0.51-1.08l-3.59-.62A16,16,0,0,0,30.41,79.84Z" transform="translate(-16.66 -1.59)"/><path class="cls-8" d="M69.76,78.18A17,17,0,0,0,61,66.71c-0.46-.24-0.92-0.44-1.39-0.63a13.46,13.46,0,0,0-6.68-5,15.77,15.77,0,0,0-2.8-.47V91.84a11,11,0,0,0,8-3.71,18.44,18.44,0,0,0,4.16-14A17.79,17.79,0,0,1,66.18,79s0.37-.09.35-0.13l3.24-.63" transform="translate(-16.66 -1.59)"/><path class="cls-7" d="M71.58,81.12a1.3,1.3,0,0,0-1.3-1.3l-0.25,0h0a16,16,0,0,0-.27-1.64l-3.66.64L66.17,79l0.14,0.27,0.18,0.39L66.6,79.9a1.09,1.09,0,0,0-.38-0.08,1.3,1.3,0,1,0,.8,2.33h0a1.29,1.29,0,0,0,1.24.94,1.27,1.27,0,0,0,.48-0.1,1.3,1.3,0,0,0,.76-0.84h0A1.29,1.29,0,0,0,71.58,81.12Z" transform="translate(-16.66 -1.59)"/><path class="cls-1" d="M49.93,90h0Z" transform="translate(-16.66 -1.59)"/><path class="cls-1" d="M49.95,69h0Z" transform="translate(-16.66 -1.59)"/><path class="cls-1" d="M49.72,69.12H50a16.81,16.81,0,0,0-1.91.35,10.11,10.11,0,0,0-6.19,7.41A13.38,13.38,0,0,0,44,88.25c1.29,1.74,1.92,2.37,4.26,2.88l1.43,0.19a1.11,1.11,0,0,0,.3,0s0,0,0,0c0.14,0,0,0,0,0V69.15A1.33,1.33,0,0,0,49.72,69.12Z" transform="translate(-16.66 -1.59)"/><path class="cls-23" d="M58.54,76.88A10.53,10.53,0,0,0,52,69.48c-0.5-.16,0-0.27-2-0.33V91.33a7.07,7.07,0,0,0,5.66-2.62A13.5,13.5,0,0,0,58.54,76.88Z" transform="translate(-16.66 -1.59)"/><path class="cls-5" d="M59.58,66.07a12.74,12.74,0,0,0-6.36-5,9.11,9.11,0,0,0-6,0,12.75,12.75,0,0,0-6.36,5c-0.47.19-.93,0.4-1.39,0.63a16.11,16.11,0,0,0-3.09,2,36.45,36.45,0,0,0,6.36,2.71s0,0,0,.07c0,0.19.1,0.35,0.15,0.54a7.54,7.54,0,0,0,4.81,5.22,7,7,0,0,0,2.39.43l0.21,0,0.25,0A7.25,7.25,0,0,0,53,77.27a7.53,7.53,0,0,0,4.81-5.22c0-.19.1-0.35,0.14-0.54,0,0,0-.05,0-0.08a36.27,36.27,0,0,0,6.19-2.62A18.8,18.8,0,0,0,61,66.7,12.14,12.14,0,0,0,59.58,66.07Zm-9.29-2.72-0.1,0h0a0.07,0.07,0,0,1,.07,0,0.1,0.1,0,0,1,.08,0h0Z" transform="translate(-16.66 -1.59)"/><path class="cls-24" d="M46.13,58.11a13.57,13.57,0,0,1,8.19,0,17.31,17.31,0,0,0-4.1-3A17.31,17.31,0,0,0,46.13,58.11Z" transform="translate(-16.66 -1.59)"/><path class="cls-8" d="M49.89,52.69q0.47-.15,1-0.28a17.39,17.39,0,0,1,1.74-.35,15.53,15.53,0,0,0-2.35-.19,15.75,15.75,0,0,0-2.69.24c0.47,0.08.94,0.18,1.4,0.3S49.57,52.59,49.89,52.69Z" transform="translate(-16.66 -1.59)"/><path class="cls-25" d="M49.75,74a5.46,5.46,0,0,1-2-.39,7.6,7.6,0,0,1-1.63-.77A8.7,8.7,0,0,1,43,68.72a0.73,0.73,0,0,0-.88-0.53C42.33,63.84,45,63.88,45,63.88V63.76c2.05-2.45,2.58-3.23,3.89-3.23l0.5,0,0.52,0H50V74H49.75Z" transform="translate(-16.66 -1.59)"/><path class="cls-7" d="M53.42,63.86c-0.67-2-1.42-3.31-3.42-3.33V74h0.26a8.62,8.62,0,0,0,2.62-.19,6.94,6.94,0,0,0,1.6-.68,7.18,7.18,0,0,0,3.05-4.21c0-.18,0-0.31.08-0.5C57.77,65,53.42,63.86,53.42,63.86Z" transform="translate(-16.66 -1.59)"/><path class="cls-4" d="M49.64,29.41a8.65,8.65,0,0,1-1.14-7.61,8.29,8.29,0,0,0-.89,8.57l-0.46.15c-1-1.67-2.24-4.43-2-6.31a8.55,8.55,0,0,0-.07,6.06L45.39,31,45,30.81l-0.18-.1-0.59-.39a33.26,33.26,0,0,1-5.69-5.53l-13.13-15L20.54,3.56c-5.38-7.32-3.6,8.16-3.6,8.16,0.34,3,3,12.35,3,12.35,1.73,6.27,8,16.85,10.17,20.19L29.65,54.47c-0.05.26-.07,0.52-0.1,0.79,0,0.05,0,.1,0,0.15,0,0.24-.06.47-0.1,0.7a11,11,0,0,1-4.94,7.36,11,11,0,0,1,10.1,1l0,0,0.42,0.29a34,34,0,0,0,7.67,3.61,8.15,8.15,0,0,1,4.37-4.49v0l0.15,0A3.4,3.4,0,0,1,50,60.55h0l0.12,0H50V29.68C50,29.59,49.64,29.51,49.64,29.41Z" transform="translate(-16.66 -1.59)"/><path class="cls-8" d="M80.05,3.56L75.21,9.81l-13.13,15a32.73,32.73,0,0,1-5.86,5.64C55,29.75,51.5,27.5,50.57,24.2a7.69,7.69,0,0,0,1.29,5.91l-1.67-.37S50,29.7,50,29.68V60.54c2,0.06,2.54,1.36,3.22,3.32l0.14,0,0.07,0a7.87,7.87,0,0,1,4.21,4.49,38.09,38.09,0,0,0,7.88-3.61l0.42-.29,0.05,0a11,11,0,0,1,10.1-1,11,11,0,0,1-4.94-7.36c0-.23-0.08-0.46-0.1-0.7,0,0,0-.1,0-0.15,0-.27,0-0.53-0.1-0.79L70.52,44.26c2.2-3.34,8.44-13.92,10.17-20.19,0,0,2.62-9.34,3-12.35C83.65,11.72,85.44-3.76,80.05,3.56Z" transform="translate(-16.66 -1.59)"/><path class="cls-4" d="M47.75,31.32l0.46,0c-0.09-.23-0.24-0.5-0.42-0.86" transform="translate(-16.66 -1.59)"/><ellipse class="cls-24" cx="33.56" cy="66.26" rx="2.23" ry="1.43"/><path class="cls-1" d="M63.94,54.51a5.29,5.29,0,0,0-1.66-4,5.63,5.63,0,0,0-8,.09,5.17,5.17,0,0,0-1.63,3.92Z" transform="translate(-16.66 -1.59)"/><g class="cls-26"><circle class="cls-1" cx="59.74" cy="53.09" r="2.62" transform="translate(-26.8 90.28) rotate(-70.66)"/><circle class="cls-1" cx="59.9" cy="53.42" r="1.51" transform="translate(-27 90.66) rotate(-70.66)"/><circle class="cls-1" cx="59.64" cy="54.08" r="0.57" transform="translate(-27.85 90.77) rotate(-70.6)"/></g><path class="cls-2" d="M52.67,55.59a5.29,5.29,0,0,0,1.66,4,5.63,5.63,0,0,0,8-.08,5.17,5.17,0,0,0,1.63-3.92Z" transform="translate(-16.66 -1.59)"/><g class="cls-27"><circle class="cls-28" cx="41.36" cy="54.46" r="3.26"/><circle class="cls-24" cx="41.36" cy="54.46" r="1.73"/></g><path class="cls-1" d="M36.52,54.51a5.29,5.29,0,0,1,1.66-4,5.63,5.63,0,0,1,8,.09,5.17,5.17,0,0,1,1.63,3.92Z" transform="translate(-16.66 -1.59)"/><g class="cls-29"><circle class="cls-1" cx="40.71" cy="53.09" r="2.62" transform="translate(-31.95 14.89) rotate(-19.35)"/><circle class="cls-1" cx="40.56" cy="53.42" r="1.51" transform="translate(-32.05 14.84) rotate(-19.32)"/><circle class="cls-1" cx="40.82" cy="54.08" r="0.57" transform="matrix(0.94, -0.33, 0.33, 0.94, -32.31, 15.04)"/></g><path class="cls-2" d="M47.79,55.59a5.29,5.29,0,0,1-1.66,4,5.63,5.63,0,0,1-8-.08,5.18,5.18,0,0,1-1.63-3.92Z" transform="translate(-16.66 -1.59)"/><g class="cls-30"><circle class="cls-28" cx="25.77" cy="54.46" r="3.26"/><circle class="cls-24" cx="25.77" cy="54.46" r="1.73"/></g><path class="cls-5" d="M19.67,5.93c-1.82-3.26-2.27-3.28-2.19,2.87C17.48,8.81,19.17,27,31,43c0,0,2.78-6.07,6.48-8.21C37.5,34.75,24.21,14.06,19.67,5.93Z" transform="translate(-16.66 -1.59)"/><path class="cls-31" d="M80.77,5.93C82.6,2.67,83,2.65,83,8.81,83,8.81,81.28,27,69.42,43c0,0-2.78-6.07-6.48-8.21C62.94,34.75,76.23,14.06,80.77,5.93Z" transform="translate(-16.66 -1.59)"/></g></g></svg>